<?xml version="1.0" encoding="utf-8"?>
<!-- Generator: Adobe Illustrator 16.0.4, SVG Export Plug-In . SVG Version: 6.00 Build 0)  -->
<!DOCTYPE svg PUBLIC "-//W3C//DTD SVG 1.1//EN" "http://www.w3.org/Graphics/SVG/1.1/DTD/svg11.dtd">
<svg version="1.1"
	 id="svg8" xmlns:dc="http://purl.org/dc/elements/1.1/" xmlns:cc="http://creativecommons.org/ns#" xmlns:rdf="http://www.w3.org/1999/02/22-rdf-syntax-ns#" xmlns:svg="http://www.w3.org/2000/svg" xmlns:sodipodi="http://sodipodi.sourceforge.net/DTD/sodipodi-0.dtd" xmlns:inkscape="http://www.inkscape.org/namespaces/inkscape" sodipodi:docname="sbcs.mk2.2.svg" inkscape:version="0.92.0 r" inkscape:export-xdpi="95.391296" inkscape:export-ydpi="95.391296" inkscape:export-filename="/Users/irinaniyazov/Desktop/sbcs.mk2-2.-logo.png"
	 xmlns="http://www.w3.org/2000/svg" xmlns:xlink="http://www.w3.org/1999/xlink" x="0px" y="0px" width="352px" height="317.029px"
	 viewBox="103.138 218.445 352 317.029" enable-background="new 103.138 218.445 352 317.029" xml:space="preserve">
<defs>
	
	
		<inkscape:perspective  id="perspective4558" inkscape:vp_z="210 : 148.5 : 1" inkscape:vp_y="0 : 1000 : 0" inkscape:vp_x="0 : 148.5 : 1" sodipodi:type="inkscape:persp3d" inkscape:persp3d-origin="105 : 99 : 1">
		</inkscape:perspective>
</defs>
<sodipodi:namedview  showguides="true" showgrid="false" inkscape:cy="619.06997" inkscape:cx="394.56913" inkscape:zoom="0.5" borderopacity="1.0" bordercolor="#666666" pagecolor="#ffffff" id="base" inkscape:window-maximized="0" inkscape:window-y="22" inkscape:window-x="0" inkscape:window-height="851" inkscape:current-layer="layer2" inkscape:window-width="1440" inkscape:pageshadow="2" inkscape:document-units="mm" inkscape:pageopacity="0.0" inkscape:guide-bbox="true">
	</sodipodi:namedview>
<g id="layer1" inkscape:label="Layer 1" inkscape:groupmode="layer">
	
		<path id="rect4491" inkscape:export-xdpi="95.391296" inkscape:export-ydpi="95.391296" inkscape:export-filename="/Users/irinaniyazov/Desktop/sbcs-final.png" fill="none" stroke="#DEDEDE" stroke-width="5.3317" stroke-linecap="round" stroke-linejoin="round" d="
		M160.08,348.727h282.134c4.021,0,7.281,3.261,7.281,7.282V496.41c0,4.021-3.26,7.283-7.281,7.283H160.08
		c-4.022,0-7.282-3.262-7.282-7.283V356.009C152.798,351.987,156.058,348.727,160.08,348.727z"/>
	
		<path id="rect4493" inkscape:export-xdpi="95.391296" inkscape:export-ydpi="95.391296" inkscape:export-filename="/Users/irinaniyazov/Desktop/sbcs-final.png" fill="#DEDEDE" d="
		M249.998,521.302h102.298c3.062,0,5.543,2.48,5.543,5.543v3.086c0,3.061-2.481,5.543-5.543,5.543H249.998
		c-3.062,0-5.544-2.482-5.544-5.543v-3.086C244.454,523.783,246.936,521.302,249.998,521.302z"/>
	
		<path id="rect4497" inkscape:export-xdpi="95.391296" inkscape:export-ydpi="95.391296" inkscape:export-filename="/Users/irinaniyazov/Desktop/sbcs-final.png" fill="none" stroke="#DEDEDE" stroke-width="5.0574" stroke-linecap="round" stroke-linejoin="round" d="
		M169.75,224.899h42.848c3.778,0,6.841,3.063,6.841,6.841v85.368c0,3.778-3.063,6.841-6.841,6.841H169.75
		c-3.778,0-6.841-3.062-6.841-6.841v-85.368C162.909,227.962,165.972,224.899,169.75,224.899z"/>
	
		<path id="rect4491-2" inkscape:export-xdpi="95.391296" inkscape:export-ydpi="95.391296" inkscape:export-filename="/Users/irinaniyazov/Desktop/sbcs-final.png" fill="none" stroke="#DEDEDE" stroke-width="4.4953" stroke-linecap="round" stroke-linejoin="round" d="
		M298.074,224.103h119.532c2.611,0,4.729,2.117,4.729,4.729v91.185c0,2.612-2.117,4.729-4.729,4.729H298.074
		c-2.612,0-4.729-2.117-4.729-4.729v-91.185C293.344,226.22,295.462,224.103,298.074,224.103z"/>
	
		<path id="rect4493-6-7-8" inkscape:export-xdpi="95.391296" inkscape:export-ydpi="95.391296" inkscape:export-filename="/Users/irinaniyazov/Desktop/sbcs-final.png" fill="#DEDEDE" d="
		M263.877,244.536v59.778c0,3.062-2.482,5.544-5.544,5.544h-3.085c-3.062,0-5.544-2.482-5.544-5.544v-59.778
		c0-3.062,2.482-5.544,5.544-5.544h3.085C261.395,238.992,263.877,241.474,263.877,244.536z"/>
</g>
<g id="layer5" inkscape:label="line right" inkscape:groupmode="layer" display="none">
	<path id="rect4493-6-7" display="inline" fill="#6B000D" d="M457.052,244.536v59.778c0,3.062-2.482,5.544-5.544,5.544h-3.085
		c-3.062,0-5.544-2.482-5.544-5.544v-59.778c0-3.062,2.482-5.544,5.544-5.544h3.085
		C454.569,238.991,457.052,241.474,457.052,244.536z"/>
</g>
<g id="layer4" inkscape:label="watch" inkscape:groupmode="layer" display="none">
	<g id="g4610" transform="translate(76.71739,50.792158)" display="inline">
		<g id="g4696" transform="translate(1.0559271)">
			<path id="rect4591" fill="#6B000D" d="M171.361,166.939h4.811c2.585,0,4.681,2.096,4.681,4.681v104.024
				c0,2.585-2.096,4.681-4.681,4.681h-4.811c-2.585,0-4.681-2.096-4.681-4.681V171.62
				C166.68,169.035,168.776,166.939,171.361,166.939z"/>
			
				<rect id="rect4556" x="158.47" y="205.501" fill="#6B000D" stroke="#6B000D" stroke-width="4.2073" stroke-linecap="round" stroke-linejoin="round" width="30.594" height="36.263"/>
		</g>
	</g>
</g>
<g id="layer3" inkscape:label="Layer 3" inkscape:groupmode="layer" display="none">
	<path id="rect4493-5" display="inline" fill="#6B000D" d="M494.456,223.357v306.619c0,2.889-2.342,5.23-5.23,5.23h-3.713
		c-2.889,0-5.23-2.342-5.23-5.23V223.357c0-2.889,2.342-5.23,5.23-5.23h3.713C492.114,218.127,494.456,220.469,494.456,223.357z"/>
	<path id="rect4493-5-4" display="inline" fill="#6B000D" d="M127.354,223.357v306.619c0,2.889-2.342,5.23-5.23,5.23h-3.713
		c-2.888,0-5.23-2.342-5.23-5.23V223.357c0-2.889,2.342-5.23,5.23-5.23h3.713C125.012,218.127,127.354,220.469,127.354,223.357z"/>
</g>
<g id="layer2" inkscape:label="Layer 2" inkscape:groupmode="layer">
	
		<path id="path4715" inkscape:connector-curvature="0" sodipodi:nodetypes="ccccc" inkscape:export-xdpi="95.391296" inkscape:export-ydpi="95.391296" inkscape:export-filename="/Users/irinaniyazov/Desktop/sbcs-final.png" fill="#DEDEDE" d="
		M422.334,224.103v100.643l-112.035-1.488l99.079-99.079L422.334,224.103z"/>
	
		<path id="path4753" inkscape:connector-curvature="0" sodipodi:nodetypes="cccccc" inkscape:export-xdpi="95.391296" inkscape:export-ydpi="95.391296" inkscape:export-filename="/Users/irinaniyazov/Desktop/sbcs-final.png" fill="#DEDEDE" d="
		M449.495,348.727v154.966H152.798l0.078-23.012L284.83,348.727H449.495z"/>
</g>
</svg>
