<?xml version="1.0" encoding="utf-8"?>
<!-- Generator: Adobe Illustrator 16.0.4, SVG Export Plug-In . SVG Version: 6.00 Build 0)  -->
<!DOCTYPE svg PUBLIC "-//W3C//DTD SVG 1.1//EN" "http://www.w3.org/Graphics/SVG/1.1/DTD/svg11.dtd">
<svg version="1.1"
	 id="svg8260" xmlns:dc="http://purl.org/dc/elements/1.1/" xmlns:cc="http://creativecommons.org/ns#" xmlns:rdf="http://www.w3.org/1999/02/22-rdf-syntax-ns#" xmlns:svg="http://www.w3.org/2000/svg"
	 xmlns="http://www.w3.org/2000/svg" xmlns:xlink="http://www.w3.org/1999/xlink" x="0px" y="0px" width="563.589px"
	 height="136.205px" viewBox="57.062 34.327 563.589 136.205" enable-background="new 57.062 34.327 563.589 136.205"
	 xml:space="preserve">
<g id="layer1" transform="translate(0,-244.08332)">
	<g id="g8844" transform="translate(1.4973854,13.573459)">
		<g id="layer1-4" transform="translate(-16.933333,-3.047897)">
			<g id="text4495">
				<path id="path8846" fill="#2B97FE" d="M182.175,345.003c1.84,0,3.667-0.613,5.48-1.84l1.6,2.199
					c-0.88,0.773-1.973,1.387-3.28,1.84c-1.307,0.454-2.573,0.681-3.8,0.681c-3.12,0-5.56-0.974-7.32-2.92
					c-1.733-1.974-2.6-4.627-2.6-7.96c0-2.107,0.387-4,1.16-5.68c0.8-1.68,1.946-3,3.44-3.96c1.493-0.96,3.267-1.44,5.32-1.44
					c2.72,0,5.067,0.827,7.04,2.48l-1.64,2.2c-1.84-1.227-3.653-1.84-5.44-1.84c-1.893,0-3.413,0.707-4.56,2.12
					c-1.12,1.386-1.68,3.427-1.68,6.12s0.56,4.707,1.68,6.039C178.722,344.349,180.255,345.003,182.175,345.003L182.175,345.003z"/>
				<path id="path8848" fill="#2B97FE" d="M204.64,325.923c2.907,0,5.133,0.986,6.68,2.96c1.573,1.947,2.36,4.613,2.36,8
					c0,3.307-0.8,5.974-2.4,8c-1.573,2-3.8,3-6.68,3c-2.907,0-5.146-0.974-6.72-2.92c-1.574-1.974-2.36-4.653-2.36-8.04
					c0-3.333,0.787-6,2.36-8C199.479,326.923,201.733,325.923,204.64,325.923L204.64,325.923z M204.64,328.683
					c-1.84,0-3.213,0.68-4.12,2.04c-0.906,1.36-1.36,3.427-1.36,6.2s0.44,4.84,1.32,6.2c0.906,1.333,2.28,2,4.12,2
					c1.84,0,3.2-0.667,4.08-2c0.907-1.36,1.36-3.44,1.36-6.24c0-2.773-0.453-4.827-1.36-6.16
					C207.8,329.363,206.453,328.683,204.64,328.683z"/>
				<path id="path8850" fill="#2B97FE" d="M234.464,325.923c1.2,0,2.173,0.427,2.92,1.28c0.773,0.827,1.16,2.347,1.16,4.56v15.68
					h-3.08v-15.12c0-1.466-0.093-2.453-0.28-2.96c-0.187-0.533-0.64-0.8-1.36-0.8c-1.36,0-2.587,0.84-3.68,2.52v16.359h-3.12v-15.12
					c0-1.466-0.093-2.453-0.28-2.96c-0.187-0.533-0.64-0.8-1.36-0.8c-1.36,0-2.587,0.84-3.68,2.52v16.359h-3.08v-21.08h2.6
					l0.24,2.48c0.64-0.934,1.307-1.653,2-2.16c0.72-0.506,1.573-0.76,2.56-0.76c1.974,0,3.24,0.933,3.8,2.8
					c0.64-0.907,1.32-1.6,2.04-2.08C232.584,326.163,233.451,325.923,234.464,325.923L234.464,325.923z"/>
				<path id="path8852" fill="#2B97FE" d="M254.008,325.923c5.094,0,7.64,3.653,7.64,10.96c0,3.333-0.693,6-2.08,8s-3.4,3-6.04,3
					c-2.293,0-4.16-0.8-5.6-2.399v10.039l-3.36,0.4v-29.56h2.88l0.28,2.96c0.773-1.093,1.693-1.933,2.76-2.52
					C251.581,326.216,252.755,325.923,254.008,325.923L254.008,325.923z M253.208,328.643c-1.067,0-2.053,0.32-2.96,0.96
					c-0.88,0.64-1.653,1.44-2.32,2.4v10.439c0.56,0.827,1.253,1.48,2.08,1.961c0.854,0.453,1.773,0.68,2.76,0.68
					c1.76,0,3.066-0.667,3.92-2c0.88-1.36,1.32-3.427,1.32-6.2s-0.387-4.84-1.16-6.2
					C256.075,329.323,254.862,328.643,253.208,328.643L253.208,328.643z"/>
				<path id="path8854" fill="#2B97FE" d="M271.913,341.323c0,1.359,0.28,2.359,0.84,3c0.586,0.613,1.493,0.92,2.72,0.92
					c1.12,0,2.2-0.32,3.24-0.961c1.04-0.64,1.867-1.439,2.48-2.399v-15.52h3.36v21.08h-2.88l-0.28-2.84
					c-0.827,1.04-1.854,1.854-3.08,2.439c-1.2,0.561-2.427,0.841-3.68,0.841c-2,0-3.52-0.534-4.56-1.601
					c-1.013-1.066-1.52-2.6-1.52-4.6v-15.32h3.36V341.323z"/>
				<path id="path8856" fill="#2B97FE" d="M309.297,346.362c-0.72,0.48-1.6,0.854-2.64,1.121c-1.013,0.266-2.027,0.399-3.04,0.399
					c-2.213,0-3.947-0.573-5.2-1.72c-1.253-1.174-1.88-2.707-1.88-4.6v-12.561h-4.84v-2.64h4.84v-4.76l3.36-0.4v5.16h7.32
					l-0.44,2.64h-6.88v12.52c0,1.2,0.32,2.094,0.96,2.681c0.64,0.587,1.667,0.88,3.08,0.88c1.44,0,2.787-0.334,4.04-1
					L309.297,346.362z"/>
				<path id="path8858" fill="#2B97FE" d="M324.521,316.523c0.747,0,1.347,0.227,1.8,0.68c0.453,0.427,0.68,0.987,0.68,1.68
					s-0.227,1.267-0.68,1.72c-0.454,0.427-1.054,0.64-1.8,0.64c-0.72,0-1.307-0.213-1.76-0.64c-0.427-0.453-0.64-1.026-0.64-1.72
					s0.213-1.253,0.64-1.68C323.215,316.75,323.802,316.523,324.521,316.523L324.521,316.523z M327.202,344.763h5.92v2.68h-15.76
					v-2.68h6.48v-15.72h-6.28v-2.68h9.64V344.763z"/>
				<path id="path8860" fill="#2B97FE" d="M340.506,326.363h2.88l0.28,2.96c0.826-1.067,1.866-1.894,3.119-2.48
					c1.28-0.613,2.561-0.92,3.84-0.92c3.947,0,5.92,2.08,5.92,6.24v15.28h-3.359v-12.8c0-1.573-0.094-2.773-0.28-3.6
					c-0.159-0.827-0.493-1.44-1-1.84s-1.28-0.6-2.319-0.6c-1.146,0-2.227,0.347-3.24,1.04s-1.84,1.52-2.48,2.48v15.32h-3.36V326.363
					z"/>
				<path id="path8862" fill="#2B97FE" d="M382.651,327.323c-0.801,0.267-1.667,0.44-2.601,0.52c-0.933,0.053-2.12,0.08-3.56,0.08
					c2.453,1.12,3.68,2.894,3.68,5.32c0,2.133-0.707,3.866-2.12,5.199c-1.413,1.307-3.347,1.961-5.8,1.961
					c-1.254,0-2.307-0.146-3.16-0.44c-0.32,0.239-0.587,0.547-0.8,0.92c-0.187,0.374-0.28,0.747-0.28,1.12c0,1.2,0.934,1.8,2.8,1.8
					h3.8c1.387,0,2.641,0.253,3.76,0.761c1.147,0.479,2.041,1.159,2.681,2.039c0.667,0.881,1,1.854,1,2.92
					c0,2.054-0.88,3.627-2.64,4.721c-1.734,1.119-4.2,1.68-7.4,1.68c-3.254,0-5.547-0.506-6.88-1.52s-2-2.627-2-4.84h3.04
					c0,0.879,0.16,1.572,0.48,2.08c0.346,0.533,0.933,0.92,1.76,1.159c0.854,0.267,2.053,0.4,3.6,0.4c2.267,0,3.934-0.294,5-0.88
					c1.094-0.587,1.641-1.453,1.641-2.601c0-0.96-0.44-1.706-1.32-2.239c-0.881-0.508-2.014-0.761-3.4-0.761h-3.76
					c-1.733,0-3.054-0.373-3.96-1.12c-0.907-0.773-1.36-1.732-1.36-2.88c0-0.667,0.2-1.319,0.6-1.96
					c0.4-0.666,0.974-1.24,1.721-1.72c-1.2-0.613-2.094-1.387-2.68-2.319c-0.561-0.961-0.84-2.121-0.84-3.48
					c0-1.414,0.346-2.667,1.039-3.76c0.721-1.12,1.707-1.987,2.961-2.6c1.279-0.64,2.746-0.96,4.399-0.96
					c2.399,0,4.227-0.133,5.479-0.4c1.254-0.267,2.627-0.72,4.121-1.36L382.651,327.323z M372.01,328.403
					c-1.627,0-2.854,0.44-3.68,1.32c-0.827,0.854-1.24,2.026-1.24,3.52c0,1.493,0.413,2.694,1.24,3.6
					c0.854,0.88,2.106,1.32,3.76,1.32c1.493,0,2.627-0.428,3.4-1.28c0.8-0.88,1.199-2.106,1.199-3.68
					C376.69,330.003,375.13,328.403,372.01,328.403z"/>
			</g>
			<g id="text4499">
				<path id="path8865" d="M388.484,345.702c0-0.986,0.333-1.812,1-2.479c0.693-0.693,1.533-1.04,2.521-1.04
					c1.013,0,1.854,0.347,2.52,1.04c0.666,0.667,1,1.493,1,2.479c0,1.014-0.334,1.854-1,2.521s-1.507,1-2.52,1
					c-0.987,0-1.827-0.333-2.521-1C388.817,347.529,388.484,346.69,388.484,345.702z"/>
				<path id="path8867" d="M415.228,346.463c1.601,0,2.867-0.307,3.8-0.92c0.934-0.613,1.4-1.427,1.4-2.44
					c0-0.693-0.12-1.253-0.359-1.68c-0.24-0.453-0.721-0.854-1.44-1.2c-0.72-0.373-1.813-0.747-3.28-1.12
					c-2.453-0.613-4.266-1.346-5.439-2.199c-1.174-0.881-1.76-2.174-1.76-3.88c0-1.76,0.732-3.16,2.199-4.2s3.4-1.56,5.801-1.56
					c2.933,0,5.493,0.773,7.68,2.32l-1.521,2.32c-0.88-0.613-1.8-1.08-2.76-1.4c-0.96-0.347-2.066-0.52-3.319-0.52
					c-3.04,0-4.561,0.92-4.561,2.76c0,0.64,0.16,1.16,0.48,1.56c0.347,0.4,0.893,0.761,1.64,1.08c0.773,0.294,1.92,0.653,3.44,1.08
					c2.293,0.613,4,1.399,5.119,2.36c1.147,0.934,1.721,2.307,1.721,4.119c0,2.107-0.854,3.681-2.561,4.721
					c-1.706,1.04-3.8,1.56-6.279,1.56c-3.307,0-6.054-0.946-8.24-2.84l1.88-2.2c0.853,0.693,1.827,1.254,2.92,1.68
					C412.882,346.263,414.029,346.463,415.228,346.463L415.228,346.463z"/>
				<path id="path8869" d="M440.053,327.263c2.906,0,5.133,0.987,6.68,2.96c1.573,1.947,2.359,4.613,2.359,8
					c0,3.307-0.8,5.974-2.399,8c-1.573,2-3.8,3-6.68,3c-2.907,0-5.147-0.974-6.721-2.92c-1.573-1.974-2.359-4.653-2.359-8.04
					c0-3.333,0.786-6,2.359-8C434.893,328.263,437.146,327.263,440.053,327.263L440.053,327.263z M440.053,330.023
					c-1.841,0-3.214,0.68-4.12,2.041c-0.907,1.36-1.36,3.426-1.36,6.2s0.44,4.84,1.32,6.2c0.906,1.333,2.279,2,4.119,2
					c1.841,0,3.2-0.667,4.08-2c0.907-1.36,1.36-3.44,1.36-6.24c0-2.773-0.453-4.827-1.36-6.16
					C443.212,330.703,441.866,330.023,440.053,330.023z"/>
				<path id="path8871" d="M465.557,346.343c1.84,0,3.667-0.613,5.48-1.84l1.6,2.2c-0.88,0.772-1.974,1.386-3.28,1.84
					c-1.307,0.453-2.573,0.68-3.8,0.68c-3.12,0-5.561-0.974-7.32-2.92c-1.733-1.974-2.6-4.626-2.6-7.96c0-2.106,0.387-4,1.16-5.68
					c0.8-1.68,1.946-3,3.439-3.96c1.493-0.96,3.267-1.44,5.32-1.44c2.72,0,5.066,0.827,7.04,2.48l-1.64,2.2
					c-1.841-1.227-3.654-1.84-5.44-1.84c-1.894,0-3.413,0.707-4.56,2.12c-1.12,1.387-1.681,3.427-1.681,6.12s0.561,4.707,1.681,6.04
					C462.104,345.69,463.637,346.343,465.557,346.343L465.557,346.343z"/>
				<path id="path8873" d="M487.981,317.863c0.747,0,1.347,0.227,1.801,0.68c0.453,0.426,0.68,0.986,0.68,1.68
					s-0.227,1.267-0.68,1.72c-0.454,0.427-1.054,0.64-1.801,0.64c-0.72,0-1.307-0.213-1.76-0.64c-0.427-0.454-0.64-1.027-0.64-1.72
					s0.213-1.253,0.64-1.68C486.674,318.089,487.261,317.863,487.981,317.863L487.981,317.863z M490.662,346.103h5.92v2.68h-15.76
					v-2.68h6.479v-15.72h-6.28v-2.68h9.641V346.103z"/>
				<path id="path8875" d="M506.646,339.423c0.08,2.32,0.68,4.066,1.8,5.24c1.146,1.173,2.587,1.76,4.32,1.76
					c1.04,0,1.986-0.146,2.84-0.439c0.88-0.32,1.813-0.801,2.8-1.441l1.561,2.24c-0.987,0.773-2.12,1.374-3.4,1.801
					c-1.253,0.426-2.521,0.64-3.8,0.64c-3.04,0-5.414-0.986-7.12-2.96c-1.681-2-2.521-4.666-2.521-8c0-2.106,0.374-3.986,1.12-5.64
					c0.747-1.68,1.813-2.986,3.2-3.92c1.387-0.96,3-1.44,4.84-1.44c2.667,0,4.76,0.934,6.28,2.8c1.547,1.84,2.32,4.36,2.32,7.56
					c0,0.613-0.027,1.214-0.08,1.801H506.646z M512.326,330.023c-1.627,0-2.946,0.587-3.96,1.76c-1.014,1.146-1.587,2.839-1.72,5.08
					h10.96c-0.027-2.213-0.507-3.906-1.44-5.08C515.233,330.609,513.953,330.023,512.326,330.023z"/>
				<path id="path8877" d="M544.71,347.702c-0.72,0.48-1.601,0.854-2.641,1.121c-1.013,0.266-2.026,0.399-3.04,0.399
					c-2.213,0-3.946-0.573-5.199-1.72c-1.254-1.174-1.881-2.707-1.881-4.6v-12.561h-4.84v-2.64h4.84v-4.76l3.36-0.4v5.16h7.32
					l-0.44,2.64h-6.88v12.52c0,1.2,0.32,2.094,0.96,2.68c0.641,0.588,1.667,0.881,3.08,0.881c1.44,0,2.787-0.334,4.04-1
					L544.71,347.702z"/>
				<path id="path8879" d="M563.094,348.903c-0.826,2.426-1.96,4.359-3.399,5.799c-1.44,1.44-3.454,2.294-6.04,2.561l-0.48-2.68
					c1.414-0.24,2.533-0.613,3.36-1.12c0.854-0.479,1.52-1.093,2-1.84c0.479-0.72,0.92-1.667,1.32-2.841h-1.12l-7.32-21.08h3.561
					l6.039,18.52l5.961-18.52h3.479L563.094,348.903z"/>
				<path id="path8881" d="M581.439,334.782c0,2.721,0.307,5.094,0.92,7.121c0.613,2,1.521,3.826,2.72,5.479
					c1.227,1.626,2.854,3.347,4.881,5.16l-1.721,1.84c-2.347-1.894-4.267-3.761-5.76-5.601c-1.467-1.84-2.6-3.893-3.4-6.159
					c-0.773-2.267-1.16-4.88-1.16-7.841c0-2.959,0.387-5.573,1.16-7.839c0.801-2.267,1.934-4.32,3.4-6.16
					c1.493-1.84,3.413-3.707,5.76-5.6l1.721,1.84c-2.054,1.813-3.693,3.533-4.921,5.16c-1.199,1.627-2.106,3.454-2.72,5.48
					C581.732,329.663,581.439,332.036,581.439,334.782L581.439,334.782z"/>
				<path id="path8883" d="M612.383,334.782c0-2.746-0.307-5.12-0.92-7.12c-0.587-2.026-1.493-3.853-2.72-5.48
					c-1.2-1.626-2.827-3.347-4.88-5.16l1.72-1.84c2.347,1.894,4.253,3.76,5.72,5.6c1.493,1.84,2.627,3.893,3.4,6.16
					c0.8,2.267,1.199,4.88,1.199,7.84c0,2.961-0.399,5.574-1.199,7.84c-0.773,2.268-1.907,4.32-3.4,6.16
					c-1.467,1.84-3.373,3.707-5.72,5.601l-1.72-1.841c2.026-1.812,3.64-3.533,4.84-5.159c1.227-1.653,2.146-3.479,2.76-5.48
					C612.077,339.876,612.383,337.503,612.383,334.782L612.383,334.782z"/>
				<path id="path8885" d="M632.848,328.343c0.933,0,1.706,0.32,2.319,0.96c0.613,0.613,0.92,1.36,0.92,2.24
					c0,0.907-0.307,1.68-0.92,2.32s-1.387,0.96-2.319,0.96c-0.907,0-1.667-0.32-2.28-0.96s-0.92-1.413-0.92-2.32
					c0-0.88,0.307-1.627,0.92-2.24C631.181,328.663,631.941,328.343,632.848,328.343z M632.848,342.143
					c0.906,0,1.666,0.32,2.279,0.96c0.641,0.613,0.96,1.373,0.96,2.28c0,0.96-0.253,2.013-0.76,3.16l-3.28,7.44h-3.04l1.92-7.92
					c-0.399-0.294-0.72-0.681-0.96-1.16c-0.213-0.48-0.319-0.987-0.319-1.521c0-0.907,0.307-1.667,0.92-2.28
					C631.181,342.463,631.941,342.144,632.848,342.143L632.848,342.143z"/>
			</g>
		</g>
		<g id="layer3" transform="translate(-16.933333,-3.047897)">
			<path id="rect4501" fill="#CCCCCC" d="M72.498,316.016h1.376v39.723h-1.376V316.016z"/>
			<g id="text4499-8">
				<path id="path8889" fill="#919191" fill-opacity="0.3922" d="M420.552,398.488l-2.76-15.44l-2.96,15.44h-4.641l-3.799-21.08
					h3.399l2.72,19l3.36-16.319h3.96l3.16,16.319l2.72-19h3.24l-3.64,21.08H420.552z"/>
				<path id="path8891" fill="#919191" fill-opacity="0.3922" d="M441.697,376.968c2.907,0,5.134,0.987,6.68,2.961
					c1.573,1.946,2.36,4.613,2.36,8c0,3.307-0.8,5.973-2.4,8c-1.573,2-3.8,3-6.68,3c-2.906,0-5.146-0.974-6.72-2.92
					c-1.573-1.974-2.36-4.654-2.36-8.04c0-3.333,0.787-6,2.36-8C436.537,377.969,438.79,376.968,441.697,376.968z M441.697,379.729
					c-1.84,0-3.213,0.68-4.12,2.04c-0.906,1.359-1.359,3.427-1.359,6.2s0.439,4.84,1.319,6.2c0.907,1.333,2.28,2,4.12,2
					s3.2-0.667,4.08-2c0.906-1.36,1.36-3.44,1.36-6.24c0-2.773-0.454-4.827-1.36-6.16
					C444.857,380.408,443.51,379.729,441.697,379.729z"/>
				<path id="path8893" fill="#919191" fill-opacity="0.3922" d="M471.881,376.968c0.854,0,1.84,0.147,2.96,0.44l-0.48,7.16h-2.72
					v-4.521h-0.2c-3.253,0-5.56,2.32-6.92,6.961v8.879h4.28v2.601h-10.96v-2.601h3.32v-15.879h-3.32v-2.601h5.84l0.64,5
					c0.854-1.813,1.867-3.173,3.04-4.08C468.561,377.422,470.068,376.968,471.881,376.968L471.881,376.968z"/>
				<path id="path8895" fill="#919191" fill-opacity="0.3922" d="M489.866,393.288c0,1.894,1.16,2.84,3.479,2.84
					c1.094,0,2.267-0.239,3.521-0.72l0.88,2.44c-1.333,0.72-3,1.08-5,1.08c-1.894,0-3.413-0.521-4.56-1.561
					c-1.12-1.04-1.681-2.453-1.681-4.24v-21.52h-6.479v-2.68h9.84V393.288z"/>
				<path id="path8897" fill="#919191" fill-opacity="0.3922" d="M521.61,368.929v29.56h-2.96l-0.32-2.76
					c-0.773,1.066-1.666,1.866-2.68,2.399s-2.106,0.801-3.28,0.801c-2.666,0-4.68-0.974-6.04-2.92c-1.333-1.947-2-4.627-2-8.041
					c0-2.105,0.334-3.986,1-5.64c0.667-1.68,1.613-2.986,2.84-3.92c1.254-0.96,2.721-1.44,4.4-1.44c2.32,0,4.213,0.841,5.68,2.521
					v-10.96L521.61,368.929z M513.45,379.689c-1.76,0-3.12,0.693-4.08,2.08c-0.933,1.387-1.399,3.453-1.399,6.2
					c0,2.72,0.427,4.786,1.28,6.2c0.88,1.387,2.146,2.08,3.8,2.08c2,0,3.733-1.121,5.2-3.36v-10.48c-0.587-0.88-1.294-1.546-2.12-2
					C515.303,379.929,514.41,379.689,513.45,379.689L513.45,379.689z"/>
				<path id="path8899" fill="#919191" fill-opacity="0.3922" d="M534.115,384.488c0,2.72,0.307,5.094,0.92,7.12
					c0.613,2,1.52,3.826,2.72,5.48c1.227,1.627,2.854,3.346,4.88,5.16l-1.72,1.84c-2.347-1.894-4.267-3.76-5.76-5.6
					c-1.467-1.841-2.601-3.895-3.4-6.16c-0.773-2.268-1.16-4.881-1.16-7.84c0-2.961,0.387-5.574,1.16-7.841
					c0.8-2.267,1.934-4.319,3.4-6.159c1.493-1.841,3.413-3.707,5.76-5.601l1.72,1.84c-2.054,1.813-3.693,3.533-4.92,5.16
					c-1.2,1.626-2.106,3.453-2.72,5.479C534.408,379.368,534.115,381.742,534.115,384.488L534.115,384.488z"/>
				<path id="path8901" fill="#919191" fill-opacity="0.3922" d="M565.059,384.488c0-2.747-0.307-5.12-0.92-7.12
					c-0.587-2.026-1.494-3.854-2.721-5.479c-1.199-1.627-2.826-3.347-4.88-5.16l1.72-1.84c2.348,1.894,4.254,3.76,5.721,5.6
					c1.493,1.841,2.627,3.894,3.399,6.16c0.801,2.267,1.2,4.88,1.2,7.84s-0.399,5.573-1.2,7.84c-0.772,2.267-1.906,4.32-3.399,6.16
					c-1.467,1.84-3.374,3.706-5.721,5.601l-1.72-1.841c2.027-1.813,3.641-3.533,4.84-5.159c1.228-1.654,2.147-3.48,2.761-5.48
					C564.752,389.581,565.059,387.208,565.059,384.488L565.059,384.488z"/>
			</g>
			<g id="text4499-8-9">
				<path id="path8904" fill="#919191" fill-opacity="0.3922" d="M410.077,286.677c0.826-1.067,1.84-1.894,3.04-2.48
					c1.2-0.587,2.44-0.88,3.72-0.88c3.947,0,5.92,2.08,5.92,6.24v15.28h-3.359v-15.24c0-1.253-0.294-2.16-0.88-2.72
					c-0.587-0.586-1.521-0.88-2.8-0.88c-1.094,0-2.147,0.347-3.16,1.04c-1.014,0.693-1.84,1.507-2.48,2.44v15.36h-3.359v-29.52
					l3.359-0.36V286.677z"/>
				<path id="path8906" fill="#919191" fill-opacity="0.3922" d="M433.381,295.477c0.08,2.32,0.68,4.067,1.8,5.24
					c1.146,1.173,2.587,1.76,4.32,1.76c1.04,0,1.986-0.146,2.84-0.44c0.88-0.32,1.813-0.8,2.8-1.44l1.56,2.24
					c-0.986,0.773-2.119,1.374-3.399,1.8c-1.254,0.427-2.521,0.64-3.8,0.64c-3.04,0-5.414-0.987-7.12-2.96
					c-1.68-2-2.521-4.667-2.521-8c0-2.107,0.374-3.987,1.12-5.64c0.747-1.68,1.813-2.987,3.2-3.92c1.387-0.96,3-1.439,4.84-1.439
					c2.667,0,4.76,0.933,6.28,2.8c1.547,1.84,2.32,4.36,2.32,7.56c0,0.613-0.027,1.213-0.08,1.8H433.381z M439.061,286.077
					c-1.627,0-2.946,0.587-3.96,1.76c-1.014,1.147-1.587,2.84-1.72,5.08h10.96c-0.026-2.213-0.507-3.906-1.44-5.08
					C441.968,286.664,440.688,286.077,439.061,286.077L439.061,286.077z"/>
				<path id="path8908" fill="#919191" fill-opacity="0.3922" d="M462.925,299.637c0,1.893,1.16,2.84,3.48,2.84
					c1.093,0,2.267-0.24,3.52-0.72l0.88,2.44c-1.333,0.72-3,1.08-5,1.08c-1.893,0-3.413-0.521-4.56-1.56
					c-1.12-1.04-1.68-2.454-1.68-4.24v-21.52h-6.48v-2.68h9.84V299.637z"/>
				<path id="path8910" fill="#919191" fill-opacity="0.3922" d="M486.91,299.637c0,1.893,1.16,2.84,3.48,2.84
					c1.093,0,2.267-0.24,3.52-0.72l0.88,2.44c-1.333,0.72-3,1.08-5,1.08c-1.893,0-3.413-0.521-4.56-1.56
					c-1.12-1.04-1.68-2.454-1.68-4.24v-21.52h-6.48v-2.68h9.84V299.637z"/>
				<path id="path8912" fill="#919191" fill-opacity="0.3922" d="M510.694,283.318c2.907,0,5.134,0.986,6.681,2.96
					c1.573,1.946,2.359,4.613,2.359,8c0,3.307-0.8,5.973-2.399,8c-1.573,2-3.8,3-6.681,3c-2.906,0-5.146-0.974-6.72-2.92
					c-1.573-1.973-2.359-4.653-2.359-8.04c0-3.333,0.786-6,2.359-8C505.535,284.318,507.788,283.318,510.694,283.318z
					 M510.694,286.077c-1.84,0-3.213,0.68-4.119,2.04c-0.907,1.36-1.36,3.427-1.36,6.2c0,2.773,0.439,4.84,1.32,6.2
					c0.906,1.333,2.279,2,4.119,2c1.841,0,3.2-0.667,4.08-2c0.907-1.36,1.36-3.44,1.36-6.24c0-2.773-0.453-4.827-1.36-6.16
					C513.854,286.757,512.507,286.077,510.694,286.077L510.694,286.077z"/>
				<path id="path8914" fill="#919191" fill-opacity="0.3922" d="M531.159,290.837c0,2.72,0.307,5.094,0.92,7.12
					c0.613,2,1.52,3.827,2.72,5.48c1.227,1.627,2.854,3.347,4.88,5.16l-1.72,1.84c-2.347-1.893-4.267-3.76-5.76-5.6
					c-1.467-1.84-2.601-3.893-3.4-6.16c-0.773-2.267-1.16-4.88-1.16-7.84s0.387-5.573,1.16-7.84c0.8-2.267,1.934-4.32,3.4-6.16
					c1.493-1.84,3.413-3.707,5.76-5.6l1.72,1.84c-2.053,1.813-3.693,3.533-4.92,5.16c-1.199,1.626-2.106,3.453-2.72,5.479
					C531.452,285.717,531.159,288.09,531.159,290.837L531.159,290.837z"/>
				<path id="path8916" fill="#919191" fill-opacity="0.3922" d="M562.103,290.837c0-2.747-0.307-5.12-0.92-7.12
					c-0.587-2.027-1.493-3.854-2.72-5.48c-1.2-1.627-2.827-3.347-4.881-5.16l1.721-1.84c2.347,1.893,4.253,3.76,5.72,5.6
					c1.493,1.84,2.627,3.894,3.4,6.16c0.8,2.267,1.2,4.88,1.2,7.84c0,2.96-0.4,5.574-1.2,7.84c-0.773,2.267-1.907,4.32-3.4,6.16
					c-1.467,1.84-3.373,3.707-5.72,5.6l-1.721-1.84c2.027-1.813,3.641-3.533,4.841-5.16c1.227-1.653,2.146-3.48,2.76-5.48
					C561.796,295.931,562.103,293.557,562.103,290.837L562.103,290.837z"/>
			</g>
			<g id="text4635">
				<path id="path8919" fill="#990000" d="M87.76,269.844c2,0,3.733,0.293,5.2,0.88c1.493,0.56,2.867,1.427,4.12,2.6l-2.8,3.24
					c-0.986-0.8-1.973-1.387-2.96-1.76s-2.04-0.56-3.16-0.56c-1.227,0-2.213,0.267-2.96,0.8c-0.72,0.506-1.08,1.24-1.08,2.2
					c0,0.667,0.146,1.213,0.44,1.64c0.32,0.427,0.867,0.827,1.64,1.2c0.773,0.374,1.934,0.8,3.48,1.28
					c2.747,0.88,4.8,1.973,6.16,3.28c1.36,1.28,2.04,3.12,2.04,5.52c0,1.707-0.427,3.213-1.28,4.52
					c-0.854,1.28-2.094,2.293-3.72,3.04c-1.626,0.72-3.533,1.08-5.72,1.08c-2.187,0-4.134-0.347-5.84-1.04s-3.173-1.64-4.4-2.84
					l3.04-3.32c1.04,0.906,2.133,1.6,3.28,2.08c1.147,0.454,2.4,0.68,3.76,0.68c1.44,0,2.586-0.333,3.44-1
					c0.88-0.667,1.32-1.6,1.32-2.8c0-0.747-0.16-1.36-0.48-1.84c-0.293-0.506-0.813-0.96-1.56-1.36
					c-0.747-0.4-1.827-0.813-3.24-1.24c-3.013-0.933-5.173-2.053-6.48-3.36c-1.28-1.307-1.92-3.013-1.92-5.12
					c0-1.546,0.413-2.907,1.24-4.08c0.827-1.2,1.974-2.12,3.44-2.76C84.227,270.164,85.893,269.844,87.76,269.844L87.76,269.844z"/>
				<path id="path8921" fill="#990000" d="M116.458,297.164c-0.773,0.533-1.653,0.934-2.64,1.2c-0.96,0.293-1.92,0.44-2.88,0.44
					c-2.187-0.027-3.84-0.653-4.96-1.88s-1.68-3.027-1.68-5.4v-10.561h-3.16v-4h3.16v-4.64l5.68-0.68v5.32h4.88l-0.56,4h-4.32v10.44
					c0,1.013,0.173,1.747,0.52,2.2c0.347,0.454,0.88,0.68,1.6,0.68c0.747,0,1.546-0.253,2.4-0.76L116.458,297.164z"/>
				<path id="path8923" fill="#990000" d="M129.542,276.324c3.173,0,5.653,1,7.44,3c1.787,1.973,2.68,4.72,2.68,8.24
					c0,2.24-0.413,4.213-1.24,5.92c-0.8,1.68-1.974,2.986-3.52,3.92c-1.52,0.933-3.32,1.4-5.4,1.4c-3.173,0-5.667-0.987-7.48-2.96
					c-1.787-2-2.68-4.76-2.68-8.28c0-2.24,0.4-4.2,1.2-5.88c0.827-1.707,2-3.027,3.52-3.96
					C125.609,276.791,127.435,276.324,129.542,276.324L129.542,276.324z M129.542,280.565c-1.44,0-2.52,0.573-3.24,1.72
					c-0.693,1.12-1.04,2.88-1.04,5.28c0,2.4,0.347,4.173,1.04,5.32c0.72,1.12,1.787,1.68,3.2,1.68c1.413,0,2.466-0.56,3.16-1.68
					c0.72-1.147,1.08-2.92,1.08-5.32c0-2.4-0.347-4.16-1.04-5.28C132.009,281.138,130.955,280.565,129.542,280.565z"/>
				<path id="path8925" fill="#990000" d="M157.822,276.324c1.867,0,3.32,0.573,4.36,1.72c1.04,1.12,1.56,2.68,1.56,4.68v15.44
					h-5.68v-14.48c0-1.146-0.2-1.947-0.6-2.4c-0.373-0.48-0.946-0.72-1.72-0.72c-0.8,0-1.533,0.253-2.2,0.76
					c-0.64,0.48-1.267,1.213-1.88,2.2v14.64h-5.68v-21.2h4.92l0.44,2.68C153.128,277.431,155.288,276.324,157.822,276.324
					L157.822,276.324z"/>
				<path id="path8927" fill="#990000" d="M181.636,298.204c-0.854,2.693-2.2,4.773-4.04,6.24c-1.813,1.467-4.28,2.307-7.4,2.52
					l-0.6-4.08c2.026-0.267,3.506-0.747,4.44-1.44c0.96-0.693,1.747-1.787,2.36-3.28h-1.96l-6.6-21.2h6.04l4.24,17.52l4.48-17.52
					h5.88L181.636,298.204z"/>
				<path id="path8929" fill="#990000" d="M207.465,283.525c1.867,0.347,3.373,1.026,4.52,2.04c1.173,0.986,1.76,2.506,1.76,4.56
					c0,2.907-1.04,4.974-3.12,6.2c-2.08,1.227-4.973,1.84-8.68,1.84h-8.64v-27.68h7.56c3.787,0,6.68,0.56,8.68,1.68s3,2.92,3,5.4
					c0,1.626-0.494,2.946-1.48,3.96C210.105,282.511,208.905,283.178,207.465,283.525L207.465,283.525z M199.184,274.724v7h2.88
					c1.44,0,2.546-0.293,3.32-0.88c0.773-0.613,1.16-1.533,1.16-2.76c0-1.227-0.414-2.093-1.24-2.6
					c-0.827-0.507-2.12-0.76-3.88-0.76H199.184z M201.985,293.804c1.84,0,3.24-0.267,4.2-0.8c0.96-0.56,1.44-1.6,1.44-3.12
					c0-2.773-1.707-4.16-5.12-4.16h-3.32v8.08H201.985z"/>
				<path id="path8931" fill="#990000" d="M230.754,276.364c0.64,0,1.347,0.106,2.12,0.32l-0.96,5.479
					c-0.747-0.187-1.373-0.28-1.88-0.28c-1.253,0-2.227,0.44-2.92,1.32s-1.24,2.227-1.64,4.04v10.92h-5.68v-21.2h4.92l0.52,4.12
					c0.506-1.493,1.24-2.653,2.2-3.48C228.421,276.777,229.527,276.364,230.754,276.364L230.754,276.364z"/>
				<path id="path8933" fill="#990000" d="M246.183,276.324c3.173,0,5.653,1,7.44,3c1.787,1.973,2.68,4.72,2.68,8.24
					c0,2.24-0.413,4.213-1.24,5.92c-0.8,1.68-1.974,2.986-3.52,3.92c-1.52,0.933-3.32,1.4-5.4,1.4c-3.173,0-5.667-0.987-7.48-2.96
					c-1.787-2-2.68-4.76-2.68-8.28c0-2.24,0.4-4.2,1.2-5.88c0.827-1.707,2-3.027,3.52-3.96
					C242.249,276.791,244.076,276.324,246.183,276.324L246.183,276.324z M246.183,280.565c-1.44,0-2.52,0.573-3.24,1.72
					c-0.693,1.12-1.04,2.88-1.04,5.28c0,2.4,0.347,4.173,1.04,5.32c0.72,1.12,1.787,1.68,3.2,1.68c1.413,0,2.466-0.56,3.16-1.68
					c0.72-1.147,1.08-2.92,1.08-5.32c0-2.4-0.347-4.16-1.04-5.28C248.649,281.138,247.596,280.565,246.183,280.565z"/>
				<path id="path8935" fill="#990000" d="M271.542,276.324c3.173,0,5.653,1,7.44,3c1.787,1.973,2.68,4.72,2.68,8.24
					c0,2.24-0.413,4.213-1.24,5.92c-0.8,1.68-1.974,2.986-3.52,3.92c-1.52,0.933-3.32,1.4-5.4,1.4c-3.173,0-5.667-0.987-7.48-2.96
					c-1.787-2-2.68-4.76-2.68-8.28c0-2.24,0.4-4.2,1.2-5.88c0.827-1.707,2-3.027,3.52-3.96
					C267.609,276.791,269.435,276.324,271.542,276.324L271.542,276.324z M271.542,280.565c-1.44,0-2.52,0.573-3.24,1.72
					c-0.693,1.12-1.04,2.88-1.04,5.28c0,2.4,0.347,4.173,1.04,5.32c0.72,1.12,1.787,1.68,3.2,1.68c1.413,0,2.466-0.56,3.16-1.68
					c0.72-1.147,1.08-2.92,1.08-5.32c0-2.4-0.347-4.16-1.04-5.28C274.009,281.138,272.955,280.565,271.542,280.565z"/>
				<path id="path8937" fill="#990000" d="M293.662,298.164h-5.68v-29.64l5.68-0.64V298.164z M299.782,286.284l7.36,11.88h-6.44
					l-6.84-11.6l6.8-9.6h5.88L299.782,286.284z"/>
			</g>
		</g>
		<g id="layer2" transform="translate(0,-217.62498)" display="none">
			<g id="g4536" transform="translate(8.445568,126.37877)" display="inline">
				<path id="path4521" fill="none" stroke="#000000" stroke-width="0.7" stroke-linejoin="round" d="M126.496-404.671v19.608
					h27.452"/>
				<path id="path4523" fill="none" stroke="#000000" stroke-width="0.7" stroke-linejoin="round" d="M147.246-378.361l6.702-6.702
					l-6.702-6.702"/>
			</g>
		</g>
	</g>
</g>
</svg>
