<?xml version="1.0" encoding="utf-8"?>
<!-- Generator: Adobe Illustrator 16.0.4, SVG Export Plug-In . SVG Version: 6.00 Build 0)  -->
<!DOCTYPE svg PUBLIC "-//W3C//DTD SVG 1.1//EN" "http://www.w3.org/Graphics/SVG/1.1/DTD/svg11.dtd">
<svg version="1.1"
	 id="svg9006" xmlns:dc="http://purl.org/dc/elements/1.1/" xmlns:cc="http://creativecommons.org/ns#" xmlns:rdf="http://www.w3.org/1999/02/22-rdf-syntax-ns#" xmlns:svg="http://www.w3.org/2000/svg"
	 xmlns="http://www.w3.org/2000/svg" xmlns:xlink="http://www.w3.org/1999/xlink" x="0px" y="0px" width="464.359px"
	 height="42.079px" viewBox="91.75 54.767 464.359 42.079" enable-background="new 91.75 54.767 464.359 42.079"
	 xml:space="preserve">
<g id="layer1-8" transform="translate(0,-217.62498)">
	<g id="text4495">
		<path id="path9592" fill="#2B97FE" d="M102.197,302.211c1.84,0,3.667-0.613,5.48-1.84l1.6,2.2c-0.88,0.773-1.973,1.387-3.28,1.84
			c-1.307,0.454-2.574,0.681-3.8,0.681c-3.12,0-5.56-0.974-7.32-2.92c-1.733-1.974-2.6-4.627-2.6-7.961c0-2.106,0.387-4,1.16-5.68
			c0.8-1.68,1.946-3,3.44-3.96c1.493-0.96,3.267-1.44,5.32-1.44c2.72,0,5.067,0.827,7.04,2.48l-1.64,2.2
			c-1.84-1.227-3.653-1.84-5.44-1.84c-1.893,0-3.413,0.707-4.56,2.12c-1.12,1.387-1.68,3.427-1.68,6.12
			c0,2.693,0.56,4.707,1.68,6.041C98.744,301.559,100.277,302.211,102.197,302.211L102.197,302.211z"/>
		<path id="path9594" fill="#2B97FE" d="M124.662,283.131c2.907,0,5.133,0.987,6.68,2.96c1.573,1.947,2.36,4.614,2.36,8
			c0,3.307-0.8,5.973-2.4,8c-1.573,2-3.8,3-6.68,3c-2.907,0-5.146-0.974-6.72-2.92c-1.573-1.974-2.36-4.654-2.36-8.041
			c0-3.333,0.787-6,2.36-8C119.502,284.131,121.755,283.131,124.662,283.131L124.662,283.131z M124.662,285.892
			c-1.84,0-3.213,0.68-4.12,2.04c-0.907,1.36-1.36,3.427-1.36,6.199c0,2.773,0.44,4.841,1.32,6.201c0.906,1.333,2.28,2,4.12,2
			c1.84,0,3.2-0.667,4.08-2c0.907-1.36,1.36-3.44,1.36-6.24c0-2.773-0.453-4.827-1.36-6.16
			C127.822,286.571,126.475,285.892,124.662,285.892z"/>
		<path id="path9596" fill="#2B97FE" d="M154.486,283.131c1.2,0,2.173,0.427,2.92,1.28c0.773,0.827,1.16,2.347,1.16,4.56v15.68
			h-3.08v-15.12c0-1.467-0.094-2.454-0.28-2.96c-0.187-0.533-0.64-0.8-1.36-0.8c-1.36,0-2.587,0.84-3.68,2.52v16.36h-3.12v-15.12
			c0-1.467-0.093-2.454-0.28-2.96c-0.187-0.533-0.64-0.8-1.36-0.8c-1.36,0-2.587,0.84-3.68,2.52v16.36h-3.08v-21.08h2.6l0.24,2.48
			c0.64-0.933,1.307-1.653,2-2.16c0.72-0.507,1.573-0.76,2.56-0.76c1.974,0,3.24,0.934,3.8,2.8c0.64-0.907,1.32-1.6,2.04-2.08
			C152.606,283.372,153.473,283.132,154.486,283.131L154.486,283.131z"/>
		<path id="path9598" fill="#2B97FE" d="M174.03,283.131c5.094,0,7.64,3.653,7.64,10.96c0,3.333-0.693,6-2.08,8s-3.4,3-6.04,3
			c-2.293,0-4.16-0.801-5.6-2.4v10.04l-3.36,0.399v-29.56h2.88l0.28,2.96c0.773-1.093,1.693-1.933,2.76-2.52
			C171.604,283.425,172.777,283.132,174.03,283.131L174.03,283.131z M173.23,285.852c-1.066,0-2.053,0.32-2.96,0.96
			c-0.88,0.64-1.653,1.44-2.32,2.4v10.44c0.56,0.827,1.253,1.479,2.08,1.96c0.854,0.453,1.773,0.68,2.76,0.68
			c1.76,0,3.067-0.666,3.92-2c0.88-1.359,1.32-3.426,1.32-6.199s-0.386-4.84-1.16-6.2
			C176.097,286.531,174.884,285.852,173.23,285.852L173.23,285.852z"/>
		<path id="path9600" fill="#2B97FE" d="M191.935,298.531c0,1.36,0.28,2.36,0.84,3c0.586,0.613,1.493,0.92,2.72,0.92
			c1.12,0,2.2-0.32,3.24-0.96s1.867-1.44,2.48-2.399v-15.521h3.36v21.08h-2.88l-0.28-2.841c-0.827,1.041-1.854,1.854-3.08,2.441
			c-1.2,0.56-2.427,0.84-3.68,0.84c-2,0-3.52-0.533-4.56-1.601c-1.013-1.066-1.52-2.601-1.52-4.6v-15.32h3.36V298.531z"/>
		<path id="path9602" fill="#2B97FE" d="M229.319,303.571c-0.72,0.479-1.6,0.854-2.64,1.12c-1.013,0.267-2.027,0.4-3.04,0.4
			c-2.213,0-3.947-0.574-5.2-1.721c-1.253-1.173-1.88-2.707-1.88-4.6v-12.56h-4.84v-2.64h4.84v-4.76l3.36-0.4v5.16h7.32l-0.44,2.64
			h-6.88v12.52c0,1.2,0.32,2.094,0.96,2.681c0.64,0.586,1.667,0.879,3.08,0.879c1.44,0,2.787-0.333,4.04-1L229.319,303.571z"/>
		<path id="path9604" fill="#2B97FE" d="M244.543,273.731c0.747,0,1.347,0.227,1.8,0.68c0.453,0.427,0.68,0.987,0.68,1.68
			s-0.227,1.267-0.68,1.72c-0.454,0.426-1.054,0.64-1.8,0.64c-0.72,0-1.307-0.213-1.76-0.64c-0.427-0.454-0.64-1.027-0.64-1.72
			s0.213-1.253,0.64-1.68C243.237,273.958,243.824,273.731,244.543,273.731L244.543,273.731z M247.224,301.972h5.92v2.68h-15.76
			v-2.68h6.48v-15.72h-6.28v-2.68h9.64V301.972z"/>
		<path id="path9606" fill="#2B97FE" d="M260.528,283.571h2.88l0.28,2.96c0.827-1.066,1.867-1.893,3.12-2.48
			c1.28-0.613,2.56-0.92,3.84-0.92c3.947,0,5.92,2.08,5.92,6.24v15.28h-3.36v-12.8c0-1.573-0.093-2.773-0.28-3.6
			c-0.16-0.827-0.494-1.44-1-1.84c-0.507-0.4-1.28-0.6-2.32-0.6c-1.146,0-2.227,0.347-3.24,1.04c-1.014,0.693-1.84,1.52-2.48,2.48
			v15.32h-3.36V283.571z"/>
		<path id="path9608" fill="#2B97FE" d="M302.672,284.531c-0.8,0.267-1.667,0.44-2.6,0.52c-0.933,0.054-2.12,0.081-3.56,0.081
			c2.454,1.12,3.68,2.893,3.68,5.32c0,2.133-0.707,3.867-2.12,5.2c-1.413,1.308-3.347,1.96-5.8,1.96
			c-1.253,0-2.307-0.146-3.16-0.439c-0.32,0.24-0.586,0.547-0.8,0.92c-0.187,0.373-0.28,0.746-0.28,1.119
			c0,1.201,0.934,1.801,2.8,1.801h3.8c1.387,0,2.64,0.253,3.76,0.76c1.147,0.48,2.04,1.16,2.68,2.04c0.667,0.88,1,1.854,1,2.92
			c0,2.054-0.88,3.627-2.64,4.72c-1.733,1.121-4.2,1.681-7.4,1.681c-3.253,0-5.546-0.507-6.88-1.521s-2-2.627-2-4.84h3.04
			c0,0.88,0.16,1.573,0.48,2.08c0.347,0.533,0.933,0.92,1.76,1.16c0.854,0.267,2.054,0.4,3.6,0.4c2.267,0,3.934-0.294,5-0.881
			c1.093-0.586,1.64-1.453,1.64-2.6c0-0.96-0.44-1.707-1.32-2.24c-0.88-0.507-2.014-0.76-3.4-0.76h-3.76
			c-1.733,0-3.053-0.373-3.96-1.12c-0.907-0.773-1.36-1.733-1.36-2.88c0-0.666,0.2-1.32,0.6-1.96c0.4-0.667,0.974-1.24,1.72-1.72
			c-1.2-0.613-2.093-1.387-2.68-2.32c-0.56-0.96-0.84-2.12-0.84-3.48c0-1.414,0.347-2.667,1.04-3.76c0.72-1.12,1.707-1.986,2.96-2.6
			c1.28-0.64,2.747-0.96,4.4-0.96c2.4,0,4.227-0.133,5.48-0.4c1.253-0.267,2.627-0.72,4.12-1.36L302.672,284.531z M292.032,285.611
			c-1.626,0-2.853,0.44-3.68,1.32c-0.827,0.854-1.24,2.027-1.24,3.52c0,1.494,0.414,2.693,1.24,3.6
			c0.853,0.881,2.106,1.32,3.76,1.32c1.493,0,2.627-0.426,3.4-1.279c0.8-0.881,1.2-2.107,1.2-3.681
			C296.712,287.211,295.152,285.611,292.032,285.611z"/>
	</g>
	<g id="text4499">
		<path id="path9611" fill="#FFFFFF" d="M308.506,302.912c0-0.987,0.333-1.814,1-2.48c0.693-0.693,1.533-1.04,2.52-1.04
			c1.013,0,1.854,0.347,2.52,1.04c0.667,0.666,1,1.493,1,2.48c0,1.013-0.333,1.853-1,2.52c-0.667,0.666-1.507,1-2.52,1
			c-0.987,0-1.827-0.334-2.52-1C308.839,304.738,308.506,303.898,308.506,302.912z"/>
		<path id="path9613" fill="#FFFFFF" d="M335.25,303.672c1.601,0,2.867-0.307,3.801-0.92s1.399-1.428,1.399-2.44
			c0-0.693-0.12-1.253-0.36-1.68c-0.239-0.454-0.719-0.854-1.439-1.2c-0.72-0.373-1.812-0.746-3.279-1.12
			c-2.454-0.613-4.268-1.347-5.44-2.2c-1.173-0.88-1.761-2.173-1.761-3.88c0-1.76,0.734-3.16,2.201-4.2s3.399-1.56,5.799-1.56
			c2.934,0,5.494,0.773,7.681,2.32l-1.521,2.32c-0.879-0.613-1.799-1.08-2.76-1.4c-0.96-0.347-2.066-0.52-3.32-0.52
			c-3.039,0-4.56,0.92-4.56,2.76c0,0.64,0.16,1.16,0.479,1.56c0.348,0.4,0.895,0.76,1.641,1.08c0.773,0.293,1.92,0.653,3.439,1.08
			c2.294,0.613,4,1.399,5.121,2.359c1.146,0.934,1.72,2.307,1.72,4.12c0,2.106-0.854,3.681-2.56,4.72
			c-1.707,1.041-3.801,1.561-6.281,1.561c-3.307,0-6.053-0.947-8.239-2.84l1.88-2.2c0.854,0.693,1.826,1.253,2.92,1.68
			C332.904,303.472,334.051,303.672,335.25,303.672L335.25,303.672z"/>
		<path id="path9615" fill="#FFFFFF" d="M360.074,284.471c2.907,0,5.134,0.987,6.681,2.96c1.573,1.946,2.36,4.613,2.36,8
			c0,3.307-0.801,5.973-2.4,8c-1.573,2-3.801,3-6.68,3c-2.907,0-5.146-0.974-6.721-2.92c-1.573-1.974-2.359-4.654-2.359-8.04
			c0-3.333,0.786-6,2.359-8C354.915,285.472,357.168,284.471,360.074,284.471L360.074,284.471z M360.074,287.231
			c-1.84,0-3.213,0.68-4.119,2.04c-0.907,1.36-1.36,3.427-1.36,6.2c0,2.772,0.44,4.84,1.319,6.2c0.907,1.333,2.281,2,4.121,2
			s3.199-0.667,4.08-2c0.906-1.36,1.359-3.44,1.359-6.24c0-2.773-0.453-4.827-1.359-6.16
			C363.234,287.912,361.889,287.231,360.074,287.231z"/>
		<path id="path9617" fill="#FFFFFF" d="M385.579,303.552c1.84,0,3.667-0.613,5.479-1.841l1.601,2.201
			c-0.88,0.773-1.974,1.387-3.28,1.84s-2.573,0.68-3.8,0.68c-3.12,0-5.56-0.974-7.319-2.92c-1.734-1.974-2.601-4.627-2.601-7.96
			c0-2.106,0.387-4,1.16-5.68c0.8-1.68,1.946-3,3.44-3.96c1.492-0.96,3.266-1.44,5.319-1.44c2.72,0,5.066,0.827,7.04,2.48
			l-1.641,2.2c-1.84-1.227-3.652-1.84-5.439-1.84c-1.893,0-3.413,0.707-4.561,2.12c-1.119,1.387-1.68,3.427-1.68,6.12
			s0.561,4.706,1.68,6.04C382.126,302.898,383.659,303.552,385.579,303.552L385.579,303.552z"/>
		<path id="path9619" fill="#FFFFFF" d="M408.004,275.071c0.746,0,1.347,0.227,1.8,0.68c0.453,0.427,0.68,0.987,0.68,1.68
			s-0.227,1.267-0.68,1.72c-0.453,0.427-1.054,0.64-1.8,0.64c-0.721,0-1.307-0.213-1.761-0.64c-0.427-0.454-0.64-1.027-0.64-1.72
			c0-0.693,0.213-1.253,0.64-1.68C406.697,275.298,407.283,275.071,408.004,275.071L408.004,275.071z M410.684,303.312h5.92v2.68
			h-15.76v-2.68h6.479v-15.72h-6.28v-2.68h9.641V303.312z"/>
		<path id="path9621" fill="#FFFFFF" d="M426.668,296.631c0.08,2.32,0.68,4.067,1.8,5.24c1.146,1.174,2.587,1.76,4.32,1.76
			c1.04,0,1.986-0.146,2.84-0.439c0.88-0.32,1.813-0.8,2.8-1.439l1.561,2.239c-0.987,0.773-2.12,1.374-3.4,1.8
			c-1.253,0.428-2.52,0.641-3.8,0.641c-3.04,0-5.413-0.986-7.12-2.96c-1.68-2-2.521-4.667-2.521-8c0-2.106,0.374-3.987,1.12-5.64
			c0.747-1.68,1.813-2.987,3.2-3.92c1.387-0.96,3-1.44,4.84-1.44c2.667,0,4.761,0.934,6.28,2.8c1.547,1.84,2.32,4.36,2.32,7.561
			c0,0.613-0.027,1.213-0.08,1.799H426.668z M432.348,287.231c-1.627,0-2.946,0.587-3.96,1.76c-1.014,1.147-1.587,2.84-1.72,5.08
			h10.96c-0.026-2.213-0.507-3.906-1.44-5.08C435.255,287.818,433.975,287.231,432.348,287.231z"/>
		<path id="path9623" fill="#FFFFFF" d="M464.732,304.911c-0.72,0.479-1.601,0.854-2.641,1.12c-1.013,0.267-2.026,0.4-3.039,0.4
			c-2.214,0-3.947-0.574-5.2-1.721c-1.254-1.173-1.88-2.706-1.88-4.6v-12.56h-4.841v-2.64h4.841v-4.76l3.359-0.4v5.16h7.32
			l-0.44,2.64h-6.88v12.52c0,1.2,0.32,2.093,0.96,2.681c0.641,0.586,1.667,0.879,3.08,0.879c1.44,0,2.787-0.333,4.04-1
			L464.732,304.911z"/>
		<path id="path9625" fill="#FFFFFF" d="M483.116,306.111c-0.826,2.427-1.96,4.36-3.399,5.8c-1.44,1.44-3.453,2.294-6.04,2.56
			l-0.48-2.68c1.414-0.239,2.533-0.613,3.36-1.119c0.854-0.48,1.52-1.094,2-1.84c0.48-0.721,0.92-1.667,1.32-2.841h-1.12
			l-7.32-21.08h3.561l6.04,18.52l5.96-18.52h3.479L483.116,306.111z"/>
		<path id="path9627" fill="#FFFFFF" d="M501.461,291.991c0,2.72,0.307,5.094,0.92,7.12c0.613,2,1.521,3.826,2.72,5.48
			c1.228,1.627,2.854,3.346,4.881,5.16l-1.721,1.84c-2.347-1.894-4.267-3.76-5.76-5.601c-1.467-1.84-2.6-3.894-3.4-6.159
			c-0.772-2.268-1.159-4.881-1.159-7.841c0-2.959,0.387-5.573,1.159-7.84c0.801-2.267,1.934-4.32,3.4-6.16
			c1.493-1.84,3.413-3.707,5.76-5.6l1.721,1.84c-2.054,1.813-3.693,3.533-4.92,5.16c-1.2,1.626-2.107,3.453-2.721,5.48
			C501.754,286.872,501.461,289.245,501.461,291.991L501.461,291.991z"/>
		<path id="path9629" fill="#FFFFFF" d="M532.405,291.991c0-2.747-0.307-5.12-0.92-7.12c-0.587-2.027-1.493-3.854-2.72-5.48
			c-1.2-1.627-2.827-3.347-4.88-5.16l1.72-1.84c2.347,1.893,4.253,3.76,5.72,5.6c1.493,1.84,2.627,3.894,3.4,6.16
			c0.8,2.267,1.2,4.88,1.2,7.84s-0.4,5.573-1.2,7.841c-0.773,2.266-1.907,4.319-3.4,6.159c-1.467,1.841-3.373,3.707-5.72,5.601
			l-1.72-1.84c2.026-1.814,3.64-3.534,4.84-5.16c1.227-1.654,2.146-3.48,2.76-5.48C532.099,297.085,532.405,294.711,532.405,291.991
			L532.405,291.991z"/>
		<path id="path9631" fill="#FFFFFF" d="M552.87,285.551c0.933,0,1.706,0.32,2.319,0.96c0.613,0.613,0.92,1.36,0.92,2.24
			c0,0.907-0.307,1.68-0.92,2.32c-0.613,0.64-1.387,0.96-2.319,0.96c-0.907,0-1.667-0.32-2.28-0.96
			c-0.613-0.64-0.92-1.413-0.92-2.32c0-0.88,0.307-1.626,0.92-2.24C551.203,285.872,551.963,285.551,552.87,285.551z
			 M552.87,299.352c0.906,0,1.666,0.32,2.279,0.96c0.641,0.613,0.96,1.373,0.96,2.28c0,0.959-0.253,2.014-0.76,3.16l-3.28,7.439
			h-3.04l1.92-7.92c-0.399-0.293-0.72-0.68-0.959-1.16c-0.214-0.48-0.32-0.986-0.32-1.52c0-0.907,0.307-1.667,0.92-2.28
			C551.203,299.672,551.963,299.352,552.87,299.352L552.87,299.352z"/>
	</g>
</g>
<g id="layer3" transform="translate(0,-217.62498)" display="none">
	<path id="rect4501" display="inline" fill="#CCCCCC" d="M-7.479,273.225h1.376v39.723h-1.376V273.225z"/>
	<g id="text4499-8" display="inline">
		<path id="path9635" fill="#919191" fill-opacity="0.3922" d="M340.574,355.697l-2.76-15.44l-2.96,15.44h-4.64l-3.801-21.08h3.4
			l2.721,19l3.359-16.32h3.96l3.16,16.32l2.72-19h3.24l-3.641,21.08H340.574z"/>
		<path id="path9637" fill="#919191" fill-opacity="0.3922" d="M361.719,334.178c2.906,0,5.133,0.986,6.68,2.959
			c1.574,1.947,2.36,4.613,2.36,8c0,3.307-0.8,5.974-2.399,8c-1.574,2-3.801,3-6.681,3c-2.906,0-5.146-0.973-6.72-2.92
			c-1.573-1.973-2.359-4.652-2.359-8.039c0-3.334,0.786-6,2.359-8C356.559,335.178,358.812,334.178,361.719,334.178z
			 M361.719,336.938c-1.84,0-3.213,0.68-4.119,2.039c-0.907,1.36-1.361,3.428-1.361,6.201s0.44,4.84,1.32,6.199
			c0.907,1.334,2.28,2,4.12,2c1.841,0,3.2-0.666,4.08-2c0.907-1.359,1.36-3.439,1.36-6.24c0-2.773-0.453-4.826-1.36-6.16
			C364.879,337.617,363.532,336.938,361.719,336.938z"/>
		<path id="path9639" fill="#919191" fill-opacity="0.3922" d="M391.903,334.178c0.854,0,1.84,0.146,2.96,0.439l-0.48,7.16h-2.72
			v-4.521h-0.2c-3.253,0-5.56,2.32-6.92,6.96v8.881h4.28v2.6h-10.96v-2.6h3.32v-15.881h-3.32v-2.6h5.84l0.641,5
			c0.854-1.813,1.866-3.174,3.039-4.08C388.584,334.631,390.09,334.177,391.903,334.178L391.903,334.178z"/>
		<path id="path9641" fill="#919191" fill-opacity="0.3922" d="M409.888,350.497c0,1.894,1.16,2.84,3.479,2.84
			c1.094,0,2.268-0.239,3.521-0.72l0.88,2.439c-1.333,0.721-3,1.08-5,1.08c-1.894,0-3.413-0.52-4.56-1.56
			c-1.12-1.04-1.681-2.453-1.681-4.24v-21.52h-6.479v-2.681h9.84V350.497z"/>
		<path id="path9643" fill="#919191" fill-opacity="0.3922" d="M441.632,326.137v29.561h-2.96l-0.32-2.76
			c-0.772,1.066-1.666,1.866-2.68,2.399s-2.106,0.8-3.28,0.8c-2.666,0-4.68-0.973-6.04-2.92c-1.333-1.946-2-4.627-2-8.04
			c0-2.106,0.334-3.986,1-5.64c0.667-1.68,1.613-2.986,2.84-3.92c1.254-0.96,2.721-1.44,4.4-1.44c2.32,0,4.214,0.841,5.68,2.521
			v-10.961L441.632,326.137z M433.472,336.896c-1.76,0-3.119,0.694-4.079,2.08c-0.934,1.387-1.4,3.454-1.4,6.201
			c0,2.72,0.427,4.786,1.28,6.199c0.88,1.387,2.146,2.08,3.8,2.08c2,0,3.733-1.12,5.2-3.359v-10.48c-0.587-0.88-1.294-1.547-2.12-2
			C435.325,337.137,434.432,336.896,433.472,336.896L433.472,336.896z"/>
		<path id="path9645" fill="#919191" fill-opacity="0.3922" d="M454.137,341.697c0,2.72,0.307,5.094,0.92,7.12
			c0.613,2,1.52,3.826,2.72,5.479c1.227,1.627,2.854,3.348,4.88,5.16l-1.72,1.84c-2.347-1.893-4.267-3.76-5.76-5.6
			c-1.467-1.84-2.601-3.894-3.4-6.16c-0.773-2.267-1.16-4.88-1.16-7.84s0.387-5.573,1.16-7.84c0.8-2.267,1.934-4.32,3.4-6.16
			c1.493-1.84,3.413-3.707,5.76-5.6l1.72,1.84c-2.053,1.812-3.693,3.533-4.92,5.16c-1.2,1.627-2.106,3.453-2.72,5.479
			C454.43,336.577,454.137,338.951,454.137,341.697L454.137,341.697z"/>
		<path id="path9647" fill="#919191" fill-opacity="0.3922" d="M485.081,341.697c0-2.747-0.307-5.12-0.92-7.12
			c-0.587-2.026-1.493-3.854-2.721-5.479c-1.199-1.627-2.826-3.348-4.88-5.16l1.721-1.84c2.347,1.893,4.253,3.76,5.72,5.6
			c1.493,1.84,2.627,3.893,3.399,6.16c0.801,2.266,1.2,4.88,1.2,7.84s-0.399,5.573-1.2,7.84c-0.772,2.267-1.906,4.32-3.399,6.16
			c-1.467,1.84-3.373,3.707-5.72,5.6l-1.721-1.84c2.027-1.813,3.641-3.533,4.84-5.16c1.228-1.653,2.147-3.48,2.761-5.48
			C484.774,346.79,485.081,344.417,485.081,341.697L485.081,341.697z"/>
	</g>
	<g id="text4499-8-9" display="inline">
		<path id="path9650" fill="#919191" fill-opacity="0.3922" d="M330.099,243.886c0.827-1.066,1.841-1.894,3.04-2.48
			c1.2-0.586,2.44-0.88,3.721-0.88c3.946,0,5.92,2.08,5.92,6.24v15.28h-3.36v-15.24c0-1.253-0.294-2.16-0.88-2.72
			c-0.587-0.587-1.521-0.88-2.801-0.88c-1.093,0-2.146,0.347-3.16,1.04c-1.013,0.693-1.84,1.507-2.479,2.44v15.36h-3.36v-29.52
			l3.36-0.36V243.886z"/>
		<path id="path9652" fill="#919191" fill-opacity="0.3922" d="M353.403,252.686c0.08,2.32,0.681,4.067,1.8,5.24
			c1.146,1.173,2.587,1.76,4.32,1.76c1.039,0,1.986-0.146,2.84-0.44c0.88-0.32,1.812-0.8,2.8-1.44l1.56,2.24
			c-0.986,0.773-2.119,1.373-3.399,1.8c-1.253,0.427-2.521,0.64-3.8,0.64c-3.04,0-5.414-0.987-7.12-2.96
			c-1.681-2-2.521-4.667-2.521-8c0-2.107,0.374-3.987,1.121-5.64c0.746-1.68,1.812-2.986,3.199-3.92c1.387-0.96,3-1.44,4.84-1.44
			c2.667,0,4.76,0.933,6.28,2.8c1.547,1.84,2.319,4.36,2.319,7.56c0,0.613-0.025,1.213-0.08,1.8H353.403z M359.083,243.286
			c-1.626,0-2.946,0.587-3.96,1.76c-1.014,1.146-1.586,2.84-1.72,5.08h10.96c-0.027-2.213-0.507-3.907-1.439-5.08
			C361.99,243.873,360.71,243.286,359.083,243.286L359.083,243.286z"/>
		<path id="path9654" fill="#919191" fill-opacity="0.3922" d="M382.947,256.846c0,1.894,1.16,2.84,3.48,2.84
			c1.094,0,2.267-0.24,3.52-0.72l0.881,2.44c-1.334,0.72-3,1.08-5,1.08c-1.895,0-3.414-0.52-4.561-1.56
			c-1.12-1.04-1.68-2.453-1.68-4.24v-21.52h-6.48v-2.68h9.84V256.846z"/>
		<path id="path9656" fill="#919191" fill-opacity="0.3922" d="M406.932,256.846c0,1.894,1.16,2.84,3.48,2.84
			c1.093,0,2.267-0.24,3.52-0.72l0.88,2.44c-1.333,0.72-3,1.08-5,1.08c-1.893,0-3.413-0.52-4.56-1.56
			c-1.12-1.04-1.68-2.453-1.68-4.24v-21.52h-6.48v-2.68h9.84V256.846z"/>
		<path id="path9658" fill="#919191" fill-opacity="0.3922" d="M430.716,240.526c2.907,0,5.134,0.987,6.681,2.96
			c1.573,1.947,2.359,4.613,2.359,8c0,3.307-0.8,5.973-2.399,8c-1.573,2-3.8,3-6.68,3c-2.907,0-5.147-0.973-6.721-2.92
			c-1.573-1.974-2.359-4.653-2.359-8.04c0-3.333,0.786-6,2.359-8C425.557,241.526,427.81,240.526,430.716,240.526z M430.716,243.286
			c-1.84,0-3.213,0.68-4.119,2.04c-0.907,1.36-1.36,3.427-1.36,6.2s0.439,4.84,1.32,6.2c0.906,1.333,2.279,2,4.119,2
			c1.841,0,3.2-0.667,4.08-2c0.907-1.36,1.36-3.44,1.36-6.24c0-2.773-0.453-4.827-1.36-6.16
			C433.876,243.966,432.529,243.286,430.716,243.286z"/>
		<path id="path9660" fill="#919191" fill-opacity="0.3922" d="M451.181,248.046c0,2.72,0.307,5.093,0.92,7.12
			c0.613,2,1.521,3.826,2.72,5.48c1.227,1.626,2.854,3.347,4.88,5.16l-1.72,1.84c-2.347-1.894-4.267-3.76-5.76-5.6
			c-1.467-1.84-2.6-3.894-3.4-6.16c-0.773-2.267-1.16-4.88-1.16-7.84s0.387-5.573,1.16-7.84c0.801-2.267,1.934-4.32,3.4-6.16
			c1.493-1.84,3.413-3.707,5.76-5.6l1.72,1.84c-2.053,1.813-3.692,3.534-4.92,5.16c-1.199,1.626-2.106,3.453-2.72,5.48
			C451.474,242.926,451.181,245.299,451.181,248.046L451.181,248.046z"/>
		<path id="path9662" fill="#919191" fill-opacity="0.3922" d="M482.125,248.046c0-2.747-0.307-5.12-0.92-7.12
			c-0.587-2.027-1.493-3.854-2.72-5.48c-1.2-1.626-2.827-3.347-4.88-5.16l1.72-1.84c2.347,1.893,4.253,3.76,5.72,5.6
			c1.493,1.84,2.627,3.893,3.4,6.16c0.8,2.267,1.2,4.88,1.2,7.84s-0.4,5.573-1.2,7.84c-0.773,2.267-1.907,4.32-3.4,6.16
			c-1.467,1.84-3.373,3.707-5.72,5.6l-1.72-1.84c2.026-1.813,3.64-3.533,4.84-5.16c1.227-1.653,2.146-3.48,2.76-5.48
			C481.818,253.139,482.125,250.766,482.125,248.046L482.125,248.046z"/>
	</g>
	<g id="text4635" display="inline">
		<path id="path9665" fill="#990000" d="M7.782,227.053c2,0,3.733,0.293,5.2,0.88c1.493,0.56,2.867,1.427,4.12,2.6l-2.8,3.24
			c-0.986-0.8-1.973-1.387-2.96-1.76c-0.986-0.373-2.04-0.56-3.16-0.56c-1.227,0-2.213,0.267-2.96,0.8
			c-0.72,0.507-1.08,1.24-1.08,2.2c0,0.667,0.146,1.213,0.44,1.64c0.32,0.427,0.867,0.827,1.64,1.2c0.773,0.373,1.933,0.8,3.48,1.28
			c2.747,0.88,4.8,1.974,6.16,3.28c1.36,1.28,2.04,3.12,2.04,5.52c0,1.707-0.427,3.213-1.28,4.52c-0.854,1.28-2.093,2.293-3.72,3.04
			c-1.626,0.72-3.533,1.08-5.72,1.08c-2.187,0-4.133-0.347-5.84-1.04c-1.707-0.693-3.173-1.64-4.4-2.84l3.04-3.32
			c1.04,0.907,2.133,1.6,3.28,2.08c1.147,0.453,2.4,0.68,3.76,0.68c1.44,0,2.586-0.333,3.44-1c0.88-0.667,1.32-1.6,1.32-2.8
			c0-0.747-0.16-1.36-0.48-1.84c-0.293-0.506-0.813-0.96-1.56-1.36c-0.747-0.4-1.827-0.813-3.24-1.24
			c-3.013-0.934-5.173-2.054-6.48-3.36c-1.28-1.307-1.92-3.013-1.92-5.12c0-1.546,0.413-2.906,1.24-4.08
			c0.827-1.2,1.974-2.12,3.44-2.76C4.249,227.373,5.916,227.053,7.782,227.053L7.782,227.053z"/>
		<path id="path9667" fill="#990000" d="M36.48,254.373c-0.773,0.533-1.653,0.933-2.64,1.2c-0.96,0.293-1.92,0.44-2.88,0.44
			c-2.187-0.026-3.84-0.653-4.96-1.88s-1.68-3.026-1.68-5.4v-10.56h-3.16v-4h3.16v-4.64l5.68-0.68v5.32h4.88l-0.56,4H30v10.44
			c0,1.013,0.173,1.747,0.52,2.2c0.347,0.453,0.88,0.68,1.6,0.68c0.747,0,1.546-0.253,2.4-0.76L36.48,254.373z"/>
		<path id="path9669" fill="#990000" d="M49.564,233.533c3.173,0,5.653,1,7.44,3c1.787,1.974,2.68,4.72,2.68,8.24
			c0,2.24-0.413,4.213-1.24,5.92c-0.8,1.68-1.974,2.987-3.52,3.92c-1.52,0.934-3.32,1.4-5.4,1.4c-3.173,0-5.667-0.986-7.48-2.96
			c-1.787-2-2.68-4.76-2.68-8.28c0-2.24,0.4-4.2,1.2-5.88c0.827-1.707,2-3.026,3.52-3.96C45.631,234,47.458,233.533,49.564,233.533z
			 M49.564,237.773c-1.44,0-2.52,0.573-3.24,1.72c-0.693,1.12-1.04,2.88-1.04,5.28s0.347,4.173,1.04,5.32
			c0.72,1.12,1.787,1.68,3.2,1.68c1.413,0,2.466-0.56,3.16-1.68c0.72-1.146,1.08-2.92,1.08-5.32s-0.347-4.16-1.04-5.28
			C52.031,238.346,50.978,237.773,49.564,237.773z"/>
		<path id="path9671" fill="#990000" d="M77.844,233.533c1.867,0,3.32,0.574,4.36,1.72c1.04,1.12,1.56,2.68,1.56,4.68v15.44h-5.68
			v-14.48c0-1.147-0.2-1.947-0.6-2.4c-0.373-0.48-0.946-0.72-1.72-0.72c-0.8,0-1.533,0.253-2.2,0.76
			c-0.64,0.48-1.267,1.213-1.88,2.2v14.64h-5.68v-21.2h4.92l0.44,2.68C73.15,234.64,75.311,233.533,77.844,233.533z"/>
		<path id="path9673" fill="#990000" d="M101.658,255.413c-0.854,2.693-2.2,4.773-4.04,6.24c-1.813,1.467-4.28,2.307-7.4,2.52
			l-0.6-4.08c2.026-0.267,3.506-0.747,4.44-1.44c0.96-0.693,1.747-1.787,2.36-3.28h-1.96l-6.6-21.2h6.04l4.24,17.52l4.48-17.52h5.88
			L101.658,255.413z"/>
		<path id="path9675" fill="#990000" d="M127.487,240.733c1.867,0.347,3.373,1.026,4.52,2.04c1.173,0.987,1.76,2.506,1.76,4.56
			c0,2.907-1.04,4.973-3.12,6.2c-2.08,1.227-4.974,1.84-8.68,1.84h-8.64v-27.68h7.56c3.787,0,6.68,0.56,8.68,1.68
			c2,1.12,3,2.92,3,5.4c0,1.626-0.494,2.947-1.48,3.96C130.127,239.72,128.927,240.386,127.487,240.733L127.487,240.733z
			 M119.207,231.933v7h2.88c1.44,0,2.546-0.293,3.32-0.88c0.773-0.613,1.16-1.533,1.16-2.76s-0.414-2.093-1.24-2.6
			s-2.12-0.76-3.88-0.76H119.207z M122.007,251.013c1.84,0,3.24-0.267,4.2-0.8c0.96-0.56,1.44-1.6,1.44-3.12
			c0-2.773-1.707-4.16-5.12-4.16h-3.32v8.08H122.007z"/>
		<path id="path9677" fill="#990000" d="M150.776,233.573c0.64,0,1.347,0.107,2.12,0.32l-0.96,5.48
			c-0.747-0.187-1.373-0.28-1.88-0.28c-1.253,0-2.227,0.44-2.92,1.32c-0.693,0.88-1.24,2.227-1.64,4.04v10.92h-5.68v-21.2h4.92
			l0.52,4.12c0.506-1.494,1.24-2.653,2.2-3.48C148.443,233.986,149.549,233.573,150.776,233.573L150.776,233.573z"/>
		<path id="path9679" fill="#990000" d="M166.205,233.533c3.173,0,5.653,1,7.44,3c1.787,1.974,2.68,4.72,2.68,8.24
			c0,2.24-0.413,4.213-1.24,5.92c-0.8,1.68-1.974,2.987-3.52,3.92c-1.52,0.934-3.32,1.4-5.4,1.4c-3.173,0-5.667-0.986-7.48-2.96
			c-1.787-2-2.68-4.76-2.68-8.28c0-2.24,0.4-4.2,1.2-5.88c0.827-1.707,2-3.026,3.52-3.96
			C162.271,234,164.098,233.533,166.205,233.533L166.205,233.533z M166.205,237.773c-1.44,0-2.52,0.573-3.24,1.72
			c-0.693,1.12-1.04,2.88-1.04,5.28s0.347,4.173,1.04,5.32c0.72,1.12,1.787,1.68,3.2,1.68c1.413,0,2.467-0.56,3.16-1.68
			c0.72-1.146,1.08-2.92,1.08-5.32s-0.347-4.16-1.04-5.28C168.671,238.346,167.618,237.773,166.205,237.773z"/>
		<path id="path9681" fill="#990000" d="M191.564,233.533c3.173,0,5.653,1,7.44,3c1.787,1.974,2.68,4.72,2.68,8.24
			c0,2.24-0.413,4.213-1.24,5.92c-0.8,1.68-1.973,2.987-3.52,3.92c-1.52,0.934-3.32,1.4-5.4,1.4c-3.173,0-5.667-0.986-7.48-2.96
			c-1.787-2-2.68-4.76-2.68-8.28c0-2.24,0.4-4.2,1.2-5.88c0.827-1.707,2-3.026,3.52-3.96
			C187.631,234,189.458,233.533,191.564,233.533L191.564,233.533z M191.564,237.773c-1.44,0-2.52,0.573-3.24,1.72
			c-0.693,1.12-1.04,2.88-1.04,5.28s0.347,4.173,1.04,5.32c0.72,1.12,1.787,1.68,3.2,1.68c1.413,0,2.467-0.56,3.16-1.68
			c0.72-1.146,1.08-2.92,1.08-5.32s-0.347-4.16-1.04-5.28C194.031,238.346,192.978,237.773,191.564,237.773z"/>
		<path id="path9683" fill="#990000" d="M213.684,255.373h-5.68v-29.64l5.68-0.64V255.373z M219.804,243.493l7.36,11.88h-6.44
			l-6.84-11.6l6.8-9.6h5.88L219.804,243.493z"/>
	</g>
</g>
<g id="layer2" transform="translate(0,-217.62498)" display="none">
	<g id="g4536" transform="translate(8.445568,126.37877)" display="inline">
		<path id="path4521" fill="none" stroke="#000000" stroke-width="0.7" stroke-linejoin="round" d="M-0.549,148.96v19.608h27.452"/>
		<path id="path4523" fill="none" stroke="#000000" stroke-width="0.7" stroke-linejoin="round" d="M20.201,175.27l6.702-6.701
			l-6.702-6.702"/>
	</g>
</g>
</svg>
