<?xml version="1.0" encoding="utf-8"?>
<!-- Generator: Adobe Illustrator 16.0.4, SVG Export Plug-In . SVG Version: 6.00 Build 0)  -->
<!DOCTYPE svg PUBLIC "-//W3C//DTD SVG 1.1//EN" "http://www.w3.org/Graphics/SVG/1.1/DTD/svg11.dtd">
<svg version="1.1" id="Layer_1" xmlns="http://www.w3.org/2000/svg" xmlns:xlink="http://www.w3.org/1999/xlink" x="0px" y="0px"
	 width="935.663px" height="304.893px" viewBox="0 0 935.663 304.893" enable-background="new 0 0 935.663 304.893"
	 xml:space="preserve">
<g>
	<path fill="none" stroke="#7B0022" stroke-width="20" stroke-miterlimit="10" d="M90.925,11.738
		C53.34,5.896,18.056,32.64,12.118,70.844c-5.938,38.203,19.716,73.91,57.302,79.753c37.585,5.842,75.418-18.353,81.356-56.557"/>
	<path fill="none" stroke="#7B0022" stroke-width="20" stroke-miterlimit="10" d="M117.834,141.613
		c14.323-8.077,31.487-13.09,48.672-9.154c37.08,8.494,60.211,45.944,51.665,83.647c-8.548,37.702-45.534,61.383-82.614,52.89"/>
</g>
<g>
	<path fill="none" stroke="#7B0022" stroke-width="20" stroke-miterlimit="10" d="M539.476,28.57
		c-28.109-25.625-72.295-22.811-98.341,5.762c-26.046,28.571-24.374,72.506,3.735,98.133c28.11,25.625,73.012,26.344,99.058-2.229"
		/>
	<path fill="none" stroke="#7B0022" stroke-width="20" stroke-miterlimit="10" d="M490.196,151.709
		c16.402,1.174,33.479,6.473,45.634,19.242c26.225,27.559,24.83,71.553-3.114,98.268s-71.856,26.033-98.082-1.521"/>
</g>
<path fill="#7B0022" d="M101.485,79.763c-3.148,2.372-7.623,1.743-9.995-1.404l-4.908-6.514c-2.372-3.148-1.743-7.622,1.404-9.995
	l54.553-41.108c3.147-2.372,7.622-1.743,9.994,1.405l4.908,6.514c2.372,3.148,1.743,7.623-1.405,9.994L101.485,79.763z"/>
<rect x="525.931" y="53.166" fill="none" width="313.985" height="67.133"/>
<text transform="matrix(1 0 0 1 525.9312 96.0059)" fill="#7B0022" font-family="'HelveticaNeue-Bold'" font-size="60">omputing</text>
<rect x="150.776" y="47.634" fill="none" width="313.985" height="67.133"/>
<text transform="matrix(1 0 0 1 150.7759 81.9058)" fill="#7B0022" font-family="'HelveticaNeue-Bold'" font-size="48">omputing</text>
<rect x="195.531" y="93.089" fill="none" width="313.986" height="67.133"/>
<text transform="matrix(1 0 0 1 195.5312 127.3604)" fill="#7B0022" font-family="'HelveticaNeue-Bold'" font-size="48">ociety</text>
<rect x="579.078" y="194.426" fill="none" width="402.798" height="106.9"/>
<text transform="matrix(1 0 0 1 579.0776 281.5327)" fill="#7B0022" font-family="'HelveticaNeue-Bold'" font-size="122">ociety</text>
</svg>
