<?xml version="1.0" encoding="utf-8"?>
<!-- Generator: Adobe Illustrator 16.0.4, SVG Export Plug-In . SVG Version: 6.00 Build 0)  -->
<!DOCTYPE svg PUBLIC "-//W3C//DTD SVG 1.1//EN" "http://www.w3.org/Graphics/SVG/1.1/DTD/svg11.dtd">
<svg version="1.1" xmlns="http://www.w3.org/2000/svg" xmlns:xlink="http://www.w3.org/1999/xlink" x="0px" y="0px" width="1024px"
	 height="1024px" viewBox="0 0 1024 1024" enable-background="new 0 0 1024 1024" xml:space="preserve">
<g id="Layer_2" display="none">
	<rect display="inline" fill="#0000FF" width="1024" height="1024"/>
</g>
<g id="Layer_1">
	<g id="layer8_1_" >
		<g id="g10642_1_" transform="translate(-86.99228,521.01046)" >
			<path id="path10636_1_"  d="M252.332-485.668c-12.004,0-21.666,9.663-21.666,21.666V445.98
				c0,12.002,9.662,21.666,21.666,21.666h693.32c12.002,0,21.666-9.664,21.666-21.666v-682.487H739.824
				c-11.965-0.001-21.668-9.699-21.668-21.664v-227.497H252.332z M761.488-485.668v205.83h205.83L761.488-485.668z"/>
			<g id="g10640_1_" transform="translate(9.9999999e-6,-1.5874733)">
			</g>
		</g>
	</g>
	<g id="layer8_1_" >
		<g id="layer19_1_" transform="translate(-42.701099,-36.425987)" >
			<path id="path11496_1_"  fill="#FFFFFF" d="M478.049,378.227
				c-7.943-0.031-14.943,1.357-20.568,4.583c-36,20.698-33.509,126.917-33.628,168.374c-0.119,41.515-3.143,141.923,32.739,162.739
				c35.881,20.877,128.164-33.33,164.163-53.97c35.939-20.639,122.884-69.331,123.003-110.786
				c0.119-41.515-86.232-90.74-122.114-111.558v-0.059C591.37,419.986,520.942,378.397,478.049,378.227z M457.778,392.179
				c12.15,0,22.518,43.794,26.322,104.807c-16.33,1.397-29.288,23.902-29.288,51.469c0,27.568,12.961,50.076,29.293,51.469
				c-3.791,61.012-14.13,104.806-26.328,104.806c-15.361,0-27.875-69.982-27.875-156.274
				C429.903,462.163,442.358,392.179,457.778,392.179L457.778,392.179z M467.683,526.57c5.456,0,9.904,9.787,9.904,21.886
				s-4.448,21.884-9.904,21.884c-5.457,0-9.905-9.785-9.905-21.884S462.227,526.57,467.683,526.57L467.683,526.57z"/>
		</g>
	</g>
	<rect x="272.077" y="807.52" fill="none" width="417.057" height="259.979"/>
	<text transform="matrix(1 0 0 1 272.0771 961.7412)" fill="#FFFFFF" font-family="'HelveticaNeue'" font-size="216">.flac</text>
</g>
</svg>
