<?xml version="1.0" encoding="utf-8"?>
<!-- Generator: Adobe Illustrator 16.0.4, SVG Export Plug-In . SVG Version: 6.00 Build 0)  -->
<!DOCTYPE svg PUBLIC "-//W3C//DTD SVG 1.1//EN" "http://www.w3.org/Graphics/SVG/1.1/DTD/svg11.dtd">
<svg version="1.1" id="Layer_1" xmlns="http://www.w3.org/2000/svg" xmlns:xlink="http://www.w3.org/1999/xlink" x="0px" y="0px"
	 width="1024px" height="1024px" viewBox="0 0 1024 1024" enable-background="new 0 0 1024 1024" xml:space="preserve">
<g>
	<path d="M930.039,222H93.507c-3.815,0-7.476,1.438-10.905,2.573l416.355,412.69c9.012,8.933,23.597,9.06,32.529,0.036
		L939.949,224.15C936.8,223.211,933.484,222,930.039,222z"/>
	<path d="M72.04,231.097C64.104,237.418,59,247.146,59,258.078v508.83c0,15.338,10.031,28.328,23.885,32.81L363.19,519.404
		L72.04,231.097z"/>
	<path d="M926.088,803L654.413,530.509L539.646,645.998C532.917,652.804,524.029,656,515.135,656
		c-8.774,0-17.552-3.425-24.267-10.071L371.367,528.353L97.466,803H926.088z"/>
	<path d="M966,766.907v-508.83c0-11.28-6.174-21.272-14.555-27.567L662.871,521.539l278.704,278.17
		C955.429,795.235,966,782.237,966,766.907z"/>
</g>
</svg>
